<?xml version="1.0" encoding="UTF-8"?>
<svg xmlns="http://www.w3.org/2000/svg" xmlns:xlink="http://www.w3.org/1999/xlink" width="201pt" height="84pt" viewBox="0 0 201 84" version="1.1">
<g id="surface1">
<path style=" stroke:none;fill-rule:nonzero;fill:rgb(0%,69.411765%,53.333333%);fill-opacity:1;" d="M 64.4375 15.5 L 4.296875 15.5 L 4.296875 4.3125 L 64.4375 4.3125 Z M 68.734375 0 L 0 0 L 0 19.8125 L 68.734375 19.8125 Z M 68.734375 0 "/>
<path style=" stroke:none;fill-rule:nonzero;fill:rgb(13.72549%,12.156863%,12.54902%);fill-opacity:1;" d="M 4.296875 52.550781 L 0 52.550781 L 0 32.742188 L 4.296875 32.742188 L 4.296875 40.570312 L 11.972656 40.570312 L 11.972656 32.742188 L 16.269531 32.742188 L 16.269531 52.550781 L 11.972656 52.550781 L 11.972656 44.34375 L 4.296875 44.34375 L 4.296875 52.550781 "/>
<path style=" stroke:none;fill-rule:nonzero;fill:rgb(13.72549%,12.156863%,12.54902%);fill-opacity:1;" d="M 22.773438 43.867188 L 27.890625 43.867188 C 27.796875 42.410156 27.195312 41.394531 25.523438 41.394531 C 24.261719 41.394531 23.152344 41.9375 22.773438 43.867188 Z M 26.027344 52.871094 C 21.671875 52.871094 18.699219 50.113281 18.699219 45.582031 C 18.699219 41.171875 21.609375 38.132812 25.460938 38.132812 C 29.660156 38.132812 31.746094 40.953125 31.746094 45.167969 L 31.746094 46.753906 L 22.773438 46.753906 C 23.28125 48.941406 24.988281 49.511719 26.691406 49.511719 C 28.179688 49.511719 29.25 49.195312 30.578125 48.371094 L 30.738281 48.371094 L 30.738281 51.632812 C 29.597656 52.457031 27.988281 52.871094 26.027344 52.871094 "/>
<path style=" stroke:none;fill-rule:nonzero;fill:rgb(13.72549%,12.156863%,12.54902%);fill-opacity:1;" d="M 42.957031 44.25 L 40.75 52.550781 L 36.988281 52.550781 L 32.691406 38.605469 L 32.691406 38.445312 L 36.800781 38.445312 L 39.136719 46.785156 L 41.347656 38.445312 L 44.699219 38.445312 L 46.9375 46.785156 L 49.308594 38.445312 L 53.257812 38.445312 L 53.257812 38.605469 L 48.960938 52.550781 L 45.203125 52.550781 L 42.957031 44.25 "/>
<path style=" stroke:none;fill-rule:nonzero;fill:rgb(13.72549%,12.156863%,12.54902%);fill-opacity:1;" d="M 60.238281 52.871094 C 56.828125 52.871094 55.4375 51.507812 55.4375 48.304688 L 55.4375 32.746094 L 59.605469 32.746094 L 59.605469 48.023438 C 59.605469 49.003906 59.984375 49.351562 60.804688 49.351562 C 61.089844 49.351562 61.5 49.257812 61.753906 49.164062 L 61.816406 49.164062 L 61.816406 52.617188 C 61.46875 52.746094 60.867188 52.871094 60.238281 52.871094 "/>
<path style=" stroke:none;fill-rule:nonzero;fill:rgb(13.72549%,12.156863%,12.54902%);fill-opacity:1;" d="M 67.0625 43.867188 L 72.179688 43.867188 C 72.082031 42.410156 71.484375 41.394531 69.808594 41.394531 C 68.546875 41.394531 67.4375 41.9375 67.0625 43.867188 Z M 70.316406 52.871094 C 65.953125 52.871094 62.984375 50.113281 62.984375 45.582031 C 62.984375 41.171875 65.894531 38.132812 69.746094 38.132812 C 73.945312 38.132812 76.03125 40.953125 76.03125 45.167969 L 76.03125 46.753906 L 67.0625 46.753906 C 67.566406 48.941406 69.273438 49.511719 70.976562 49.511719 C 72.460938 49.511719 73.535156 49.195312 74.863281 48.371094 L 75.019531 48.371094 L 75.019531 51.632812 C 73.882812 52.457031 72.273438 52.871094 70.316406 52.871094 "/>
<path style=" stroke:none;fill-rule:nonzero;fill:rgb(13.72549%,12.156863%,12.54902%);fill-opacity:1;" d="M 93.152344 38.445312 L 96.246094 38.445312 L 96.246094 41.808594 L 93.152344 41.808594 L 93.152344 47.542969 C 93.152344 48.78125 93.625 49.351562 94.890625 49.351562 C 95.238281 49.351562 95.679688 49.320312 96.152344 49.160156 L 96.246094 49.160156 L 96.246094 52.457031 C 95.710938 52.648438 94.890625 52.867188 93.6875 52.867188 C 90.308594 52.867188 88.980469 51.316406 88.980469 47.734375 L 88.980469 41.808594 L 83.644531 41.808594 L 83.644531 47.542969 C 83.644531 48.78125 84.117188 49.351562 85.378906 49.351562 C 85.730469 49.351562 86.171875 49.320312 86.644531 49.160156 L 86.738281 49.160156 L 86.738281 52.457031 C 86.203125 52.648438 85.378906 52.867188 84.179688 52.867188 C 80.800781 52.867188 79.472656 51.316406 79.472656 47.734375 L 79.472656 41.808594 L 77.324219 41.808594 L 77.324219 38.445312 L 79.472656 38.445312 L 79.472656 34.582031 L 83.644531 34.582031 L 83.644531 38.445312 L 88.980469 38.445312 L 88.980469 34.582031 L 93.152344 34.582031 L 93.152344 38.445312 "/>
<path style=" stroke:none;fill-rule:nonzero;fill:rgb(13.72549%,12.156863%,12.54902%);fill-opacity:1;" d="M 110.296875 42.476562 C 112.476562 42.476562 113.515625 41.238281 113.515625 39.460938 C 113.515625 37.625 112.476562 36.386719 110.296875 36.386719 L 107.578125 36.386719 L 107.578125 42.476562 Z M 117.878906 39.460938 C 117.878906 43.773438 115.003906 46.117188 110.644531 46.117188 L 107.578125 46.117188 L 107.578125 52.550781 L 103.285156 52.550781 L 103.285156 32.742188 L 110.644531 32.742188 C 115.003906 32.742188 117.878906 35.085938 117.878906 39.460938 "/>
<path style=" stroke:none;fill-rule:nonzero;fill:rgb(13.72549%,12.156863%,12.54902%);fill-opacity:1;" d="M 127.035156 48.113281 L 127.035156 46.910156 C 126.40625 46.5625 125.585938 46.4375 124.734375 46.4375 C 123.375 46.4375 122.550781 46.941406 122.550781 48.082031 C 122.550781 49.257812 123.375 49.765625 124.605469 49.765625 C 125.773438 49.765625 126.660156 49.164062 127.035156 48.113281 Z M 127.164062 51.160156 C 126.246094 52.269531 124.890625 52.808594 123.4375 52.808594 C 120.6875 52.808594 118.445312 51.128906 118.445312 48.144531 C 118.445312 45.390625 120.6875 43.554688 123.910156 43.554688 C 124.917969 43.554688 125.964844 43.710938 127.035156 44.027344 L 127.035156 43.773438 C 127.035156 42.25 126.183594 41.589844 123.941406 41.589844 C 122.519531 41.589844 121.164062 42 119.992188 42.664062 L 119.835938 42.664062 L 119.835938 39.304688 C 120.910156 38.671875 122.804688 38.132812 124.667969 38.132812 C 128.902344 38.132812 131.207031 40.160156 131.207031 43.710938 L 131.207031 52.550781 L 127.164062 52.550781 L 127.164062 51.160156 "/>
<path style=" stroke:none;fill-rule:nonzero;fill:rgb(13.72549%,12.156863%,12.54902%);fill-opacity:1;" d="M 133.324219 45.515625 C 133.324219 40.984375 136.515625 38.132812 140.683594 38.132812 C 142.171875 38.132812 143.558594 38.449219 144.601562 39.210938 L 144.601562 42.789062 L 144.441406 42.789062 C 143.523438 42.09375 142.453125 41.679688 141.21875 41.679688 C 139.136719 41.679688 137.558594 43.109375 137.558594 45.515625 C 137.558594 47.925781 139.136719 49.320312 141.21875 49.320312 C 142.453125 49.320312 143.523438 48.910156 144.441406 48.210938 L 144.601562 48.210938 L 144.601562 51.792969 C 143.558594 52.550781 142.171875 52.871094 140.683594 52.871094 C 136.515625 52.871094 133.324219 50.050781 133.324219 45.515625 "/>
<path style=" stroke:none;fill-rule:nonzero;fill:rgb(13.72549%,12.156863%,12.54902%);fill-opacity:1;" d="M 151.390625 46.152344 L 151.390625 52.550781 L 147.222656 52.550781 L 147.222656 32.742188 L 151.390625 32.742188 L 151.390625 44.027344 L 155.59375 38.445312 L 160.328125 38.445312 L 160.328125 38.605469 L 155.277344 45.007812 L 160.328125 52.394531 L 160.328125 52.550781 L 155.5625 52.550781 L 151.390625 46.152344 "/>
<path style=" stroke:none;fill-rule:nonzero;fill:rgb(13.72549%,12.156863%,12.54902%);fill-opacity:1;" d="M 169.679688 48.113281 L 169.679688 46.910156 C 169.050781 46.5625 168.230469 46.4375 167.375 46.4375 C 166.015625 46.4375 165.195312 46.941406 165.195312 48.082031 C 165.195312 49.257812 166.015625 49.765625 167.246094 49.765625 C 168.417969 49.765625 169.300781 49.164062 169.679688 48.113281 Z M 169.808594 51.160156 C 168.890625 52.269531 167.53125 52.808594 166.078125 52.808594 C 163.332031 52.808594 161.089844 51.128906 161.089844 48.144531 C 161.089844 45.390625 163.332031 43.554688 166.554688 43.554688 C 167.566406 43.554688 168.605469 43.710938 169.679688 44.027344 L 169.679688 43.773438 C 169.679688 42.25 168.828125 41.589844 166.585938 41.589844 C 165.167969 41.589844 163.804688 42 162.636719 42.664062 L 162.480469 42.664062 L 162.480469 39.304688 C 163.550781 38.671875 165.445312 38.132812 167.308594 38.132812 C 171.546875 38.132812 173.851562 40.160156 173.851562 43.710938 L 173.851562 52.550781 L 169.808594 52.550781 L 169.808594 51.160156 "/>
<path style=" stroke:none;fill-rule:nonzero;fill:rgb(13.72549%,12.156863%,12.54902%);fill-opacity:1;" d="M 180.863281 40.730469 C 181.621094 39.175781 182.726562 38.289062 184.277344 38.289062 C 184.84375 38.289062 185.410156 38.414062 185.628906 38.542969 L 185.628906 42.539062 L 185.476562 42.539062 C 185 42.347656 184.433594 42.21875 183.644531 42.21875 C 182.347656 42.21875 181.335938 42.980469 180.988281 44.4375 L 180.988281 52.550781 L 176.820312 52.550781 L 176.820312 38.445312 L 180.863281 38.445312 L 180.863281 40.730469 "/>
<path style=" stroke:none;fill-rule:nonzero;fill:rgb(13.72549%,12.156863%,12.54902%);fill-opacity:1;" d="M 196.6875 47.765625 L 196.6875 43.234375 C 195.992188 42.21875 195.078125 41.777344 194.035156 41.777344 C 192.203125 41.777344 190.972656 43.109375 190.972656 45.515625 C 190.972656 47.925781 192.203125 49.226562 194.035156 49.226562 C 195.078125 49.226562 195.992188 48.78125 196.6875 47.765625 Z M 196.8125 51.097656 C 195.929688 52.238281 194.539062 52.871094 192.644531 52.871094 C 189.042969 52.871094 186.738281 49.578125 186.738281 45.515625 C 186.738281 41.460938 189.042969 38.132812 192.644531 38.132812 C 194.476562 38.132812 195.804688 38.703125 196.6875 39.75 L 196.6875 32.746094 L 200.859375 32.746094 L 200.859375 52.550781 L 196.8125 52.550781 L 196.8125 51.097656 "/>
<path style=" stroke:none;fill-rule:nonzero;fill:rgb(13.72549%,12.156863%,12.54902%);fill-opacity:1;" d="M 0 59.023438 L 12.191406 59.023438 L 12.191406 61.429688 L 2.746094 61.429688 L 2.746094 67.484375 L 11.308594 67.484375 L 11.308594 69.832031 L 2.746094 69.832031 L 2.746094 76.425781 L 12.191406 76.425781 L 12.191406 78.832031 L 0 78.832031 L 0 59.023438 "/>
<path style=" stroke:none;fill-rule:nonzero;fill:rgb(13.72549%,12.156863%,12.54902%);fill-opacity:1;" d="M 22.269531 64.601562 C 25.394531 64.601562 27.132812 66.660156 27.132812 70.050781 L 27.132812 78.832031 L 24.511719 78.832031 L 24.511719 70.117188 C 24.511719 68.308594 23.59375 67.007812 21.605469 67.007812 C 19.960938 67.007812 18.574219 68.058594 18.097656 69.546875 L 18.097656 78.832031 L 15.476562 78.832031 L 15.476562 64.886719 L 18.097656 64.886719 L 18.097656 66.914062 C 18.921875 65.613281 20.3125 64.601562 22.269531 64.601562 "/>
<path style=" stroke:none;fill-rule:nonzero;fill:rgb(13.72549%,12.156863%,12.54902%);fill-opacity:1;" d="M 34.175781 64.886719 L 37.75 64.886719 L 37.75 67.136719 L 34.175781 67.136719 L 34.175781 74.648438 C 34.175781 76.234375 35 76.773438 36.484375 76.773438 C 36.894531 76.773438 37.335938 76.710938 37.652344 76.582031 L 37.75 76.582031 L 37.75 78.832031 C 37.367188 78.992188 36.832031 79.117188 36.105469 79.117188 C 32.847656 79.117188 31.558594 77.628906 31.558594 74.902344 L 31.558594 67.136719 L 29.15625 67.136719 L 29.15625 64.886719 L 31.558594 64.886719 L 31.558594 61.179688 L 34.175781 61.179688 L 34.175781 64.886719 "/>
<path style=" stroke:none;fill-rule:nonzero;fill:rgb(13.72549%,12.156863%,12.54902%);fill-opacity:1;" d="M 42.140625 70.496094 L 49.054688 70.496094 C 48.960938 68.4375 47.949219 66.851562 45.800781 66.851562 C 43.8125 66.851562 42.515625 68.339844 42.140625 70.496094 Z M 46.277344 79.117188 C 42.199219 79.117188 39.421875 76.390625 39.421875 72.019531 C 39.421875 67.644531 42.011719 64.601562 45.769531 64.601562 C 49.59375 64.601562 51.582031 67.359375 51.582031 71.445312 L 51.582031 72.652344 L 42.042969 72.652344 C 42.328125 75.472656 44.128906 76.835938 46.625 76.835938 C 48.171875 76.835938 49.277344 76.484375 50.507812 75.570312 L 50.605469 75.570312 L 50.605469 77.882812 C 49.464844 78.769531 47.980469 79.117188 46.277344 79.117188 "/>
<path style=" stroke:none;fill-rule:nonzero;fill:rgb(13.72549%,12.156863%,12.54902%);fill-opacity:1;" d="M 57.300781 67.042969 C 57.898438 65.550781 59.226562 64.664062 60.742188 64.664062 C 61.34375 64.664062 61.882812 64.761719 62.101562 64.886719 L 62.101562 67.484375 L 62.007812 67.484375 C 61.625 67.296875 60.996094 67.199219 60.363281 67.199219 C 58.945312 67.199219 57.742188 68.152344 57.300781 69.738281 L 57.300781 78.832031 L 54.675781 78.832031 L 54.675781 64.886719 L 57.300781 64.886719 L 57.300781 67.042969 "/>
<path style=" stroke:none;fill-rule:nonzero;fill:rgb(13.72549%,12.156863%,12.54902%);fill-opacity:1;" d="M 70.566406 76.742188 C 73.15625 76.742188 74.671875 74.679688 74.671875 71.859375 C 74.671875 69.070312 73.15625 66.980469 70.566406 66.980469 C 69.144531 66.980469 67.816406 67.832031 67.125 69.195312 L 67.125 74.554688 C 67.816406 75.914062 69.144531 76.742188 70.566406 76.742188 Z M 71.007812 64.601562 C 75.144531 64.601562 77.355469 67.992188 77.355469 71.859375 C 77.355469 75.726562 75.144531 79.117188 71.007812 79.117188 C 69.300781 79.117188 67.847656 78.230469 67.125 77.277344 L 67.125 84.191406 L 64.5 84.191406 L 64.5 64.886719 L 67.125 64.886719 L 67.125 66.472656 C 67.847656 65.488281 69.300781 64.601562 71.007812 64.601562 "/>
<path style=" stroke:none;fill-rule:nonzero;fill:rgb(13.72549%,12.156863%,12.54902%);fill-opacity:1;" d="M 83.074219 67.042969 C 83.675781 65.550781 85.003906 64.664062 86.515625 64.664062 C 87.117188 64.664062 87.652344 64.761719 87.875 64.886719 L 87.875 67.484375 L 87.78125 67.484375 C 87.402344 67.296875 86.769531 67.199219 86.140625 67.199219 C 84.714844 67.199219 83.515625 68.152344 83.074219 69.738281 L 83.074219 78.832031 L 80.453125 78.832031 L 80.453125 64.886719 L 83.074219 64.886719 L 83.074219 67.042969 "/>
<path style=" stroke:none;fill-rule:nonzero;fill:rgb(13.72549%,12.156863%,12.54902%);fill-opacity:1;" d="M 91.664062 59.242188 C 92.582031 59.242188 93.339844 59.972656 93.339844 60.890625 C 93.339844 61.8125 92.582031 62.539062 91.664062 62.539062 C 90.78125 62.539062 89.992188 61.8125 89.992188 60.890625 C 89.992188 59.972656 90.78125 59.242188 91.664062 59.242188 "/>
<path style=" stroke:none;fill-rule:nonzero;fill:rgb(13.72549%,12.156863%,12.54902%);fill-opacity:1;" d="M 90.371094 78.832031 L 92.992188 78.832031 L 92.992188 64.886719 L 90.371094 64.886719 Z M 90.371094 78.832031 "/>
<path style=" stroke:none;fill-rule:nonzero;fill:rgb(13.72549%,12.156863%,12.54902%);fill-opacity:1;" d="M 102.34375 70.6875 C 104.332031 71.320312 106.542969 72.144531 106.542969 74.804688 C 106.542969 77.660156 104.207031 79.117188 101.207031 79.117188 C 99.371094 79.117188 97.539062 78.671875 96.5 77.851562 L 96.5 75.34375 L 96.625 75.34375 C 97.796875 76.421875 99.53125 76.898438 101.171875 76.898438 C 102.65625 76.898438 103.984375 76.328125 103.984375 75.125 C 103.984375 73.886719 102.882812 73.601562 100.699219 72.875 C 98.742188 72.238281 96.5625 71.507812 96.5625 68.878906 C 96.5625 66.183594 98.773438 64.601562 101.585938 64.601562 C 103.226562 64.601562 104.679688 64.949219 105.847656 65.742188 L 105.847656 68.277344 L 105.753906 68.277344 C 104.617188 67.359375 103.289062 66.820312 101.648438 66.820312 C 100.003906 66.820312 99.089844 67.550781 99.089844 68.53125 C 99.089844 69.640625 100.097656 69.957031 102.34375 70.6875 "/>
<path style=" stroke:none;fill-rule:nonzero;fill:rgb(13.72549%,12.156863%,12.54902%);fill-opacity:1;" d="M 111.535156 70.496094 L 118.449219 70.496094 C 118.359375 68.4375 117.347656 66.851562 115.199219 66.851562 C 113.210938 66.851562 111.914062 68.339844 111.535156 70.496094 Z M 115.671875 79.117188 C 111.597656 79.117188 108.820312 76.390625 108.820312 72.019531 C 108.820312 67.644531 111.410156 64.601562 115.167969 64.601562 C 118.992188 64.601562 120.980469 67.359375 120.980469 71.445312 L 120.980469 72.652344 L 111.441406 72.652344 C 111.726562 75.472656 113.523438 76.835938 116.019531 76.835938 C 117.570312 76.835938 118.671875 76.484375 119.902344 75.570312 L 120 75.570312 L 120 77.882812 C 118.863281 78.769531 117.378906 79.117188 115.671875 79.117188 "/>
</g>
</svg>
